<?xml version="1.0" encoding="utf-8"?>
<!-- Generator: Adobe Illustrator 24.0.2, SVG Export Plug-In . SVG Version: 6.00 Build 0)  -->
<svg version="1.1" id="Layer_1" xmlns="http://www.w3.org/2000/svg" xmlns:xlink="http://www.w3.org/1999/xlink" x="0px" y="0px"
	 viewBox="0 0 110 110" style="enable-background:new 0 0 100 100;" xml:space="preserve">
<style type="text/css">
	.st0{fill:none;stroke:#1F212B;stroke-width:2;stroke-linecap:round;stroke-linejoin:round;stroke-miterlimit:10;}
	.st1{fill:#F9B621;}
</style>
<path class="st0" d="M16.4,89.9C21,89.9,76,66,68,24"/>
<g id="leafs">
	<path class="st1" d="M68,23c0.5,0,1-0.1,1.5-0.2c1.2-0.4,2.3-1.4,2.9-2.7c0.8-1.7,0.8-3.6,0-5.4C71,11.4,66,7.6,63.7,6
		c-0.8,2.5-2.4,8-1.4,12C63.3,21.1,65.5,23,68,23z"/>
	<path class="st1" d="M70.1,29.3c-1,1.9-1.4,3.8-0.9,5.5c0.4,1.2,1.2,2.2,2.3,2.8c0.6,0.3,1.3,0.5,2,0.5c2,0,4.5-1.2,5.7-4
		c1.4-3.2,0.7-9.2,0.3-12C77.1,23.1,72.2,25.9,70.1,29.3z"/>
	<path class="st1" d="M58.4,35.3c1.3,1.1,2.9,1.7,4.6,1.7c1.7,0,3.2-0.6,4.1-1.7c0.8-1,1.1-2.1,0.9-3.4c-0.2-1.6-1.4-3.2-3.1-4.4
		c-3.5-2.2-9.3-2.5-11.9-2.6C53.8,27.5,55.7,33,58.4,35.3z"/>
	<path class="st1" d="M68,45.2c-1.8,1.4-2.8,3.1-3,4.7c-0.1,1.3,0.3,2.5,1.1,3.4c0.9,1,2.3,1.6,4,1.6c1.8,0,3.6-0.7,4.9-2
		c2.6-2.5,4.3-8.3,4.9-11C77.3,42.2,71.4,42.9,68,45.2z"/>
	<path class="st1" d="M59.9,52c1.6,0,3.1-0.6,4-1.6c0.9-1,1.3-2.2,1.1-3.4c-0.2-1.7-1.2-3.4-2.9-4.7c-3.5-2.4-9.3-3.1-12.1-3.3
		c0.7,2.7,2.3,8.5,4.9,11C56.3,51.3,58,52,59.9,52z"/>
	<path class="st1" d="M61.2,59.8c-2,0.9-3.4,2.3-3.9,3.9c-0.4,1.2-0.4,2.5,0.2,3.6c0.8,1.6,2.7,2.7,4.8,2.7c1.2,0,2.4-0.3,3.4-1
		c3-1.8,6-7,7.3-9.4c-1.4-0.3-3.8-0.6-6.2-0.6C64.5,59,62.6,59.3,61.2,59.8z"/>
	<path class="st1" d="M52.4,66c1,0,1.9-0.3,2.6-0.8c1-0.7,1.7-1.8,1.9-3.1c0.3-1.7-0.3-3.5-1.6-5.2c-2.6-3.1-7.9-5.1-10.3-5.9
		c0,2.7,0.2,8.8,2,11.8C48.2,64.8,50.3,66,52.4,66z"/>
	<path class="st1" d="M48.8,72c-2.1,0.3-3.8,1.2-4.8,2.7c-0.8,1.1-1.1,2.4-0.9,3.7c0.4,2.6,2.9,4.6,5.7,4.6c0.5,0,1-0.1,1.6-0.2
		c3.4-0.8,7.7-5.2,9.7-7.2c-2.1-1.2-6.7-3.6-10.6-3.6C49.2,72,48.9,72,48.8,72z"/>
	<path class="st1" d="M40.4,76c0.7,0,1.3-0.1,1.9-0.4c1.1-0.5,2-1.5,2.4-2.7c0.5-1.6,0.3-3.5-0.7-5.4c-2.1-3.5-6.9-6.4-9.3-7.6
		c-0.5,2.7-1.4,8.6-0.2,11.8C35.8,74.7,38.4,76,40.4,76z"/>
	<path class="st1" d="M31.7,81.9c0.6-1.6,0.3-3.5-0.7-5.4c-2.1-3.5-6.9-6.4-9.3-7.6c-0.5,2.7-1.4,8.6-0.2,11.8
		c1.1,2.9,3.8,4.2,5.8,4.2c0.7,0,1.3-0.1,1.9-0.4C30.4,84.1,31.3,83.1,31.7,81.9z"/>
	<path class="st1" d="M38.9,82.9c-1.3-0.6-2.5-0.9-3.7-0.9c-2.2,0-3.9,1.1-4.8,2.8c-0.5,1.1-0.5,2.6,0.1,3.9c0.7,1.7,2.2,3,4.1,3.7
		c1,0.4,2.5,0.6,4.2,0.6c3.1,0,6.4-0.6,8.2-1C45.7,89.7,42.6,84.9,38.9,82.9z"/>
</g>
<g>
	<path class="st0" d="M68,23c0.5,0,1-0.1,1.5-0.2c1.2-0.4,2.3-1.4,2.9-2.7c0.8-1.7,0.8-3.6,0-5.4C71,11.4,66,7.6,63.7,6
		c-0.8,2.5-2.4,8-1.4,12C63.3,21.1,65.5,23,68,23z"/>
	<path class="st0" d="M70.1,29.3c-1,1.9-1.4,3.8-0.9,5.5c0.4,1.2,1.2,2.2,2.3,2.8c0.6,0.3,1.3,0.5,2,0.5c2,0,4.5-1.2,5.7-4
		c1.4-3.2,0.7-9.2,0.3-12C77.1,23.1,72.2,25.9,70.1,29.3z"/>
	<path class="st0" d="M58.4,35.3c1.3,1.1,2.9,1.7,4.6,1.7c1.7,0,3.2-0.6,4.1-1.7c0.8-1,1.1-2.1,0.9-3.4c-0.2-1.6-1.4-3.2-3.1-4.4
		c-3.5-2.2-9.3-2.5-11.9-2.6C53.8,27.5,55.7,33,58.4,35.3z"/>
	<path class="st0" d="M68,45.2c-1.8,1.4-2.8,3.1-3,4.7c-0.1,1.3,0.3,2.5,1.1,3.4c0.9,1,2.3,1.6,4,1.6c1.8,0,3.6-0.7,4.9-2
		c2.6-2.5,4.3-8.3,4.9-11C77.3,42.2,71.4,42.9,68,45.2z"/>
	<path class="st0" d="M59.9,52c1.6,0,3.1-0.6,4-1.6c0.9-1,1.3-2.2,1.1-3.4c-0.2-1.7-1.2-3.4-2.9-4.7c-3.5-2.4-9.3-3.1-12.1-3.3
		c0.7,2.7,2.3,8.5,4.9,11C56.3,51.3,58,52,59.9,52z"/>
	<path class="st0" d="M61.2,59.8c-2,0.9-3.4,2.3-3.9,3.9c-0.4,1.2-0.4,2.5,0.2,3.6c0.8,1.6,2.7,2.7,4.8,2.7c1.2,0,2.4-0.3,3.4-1
		c3-1.8,6-7,7.3-9.4c-1.4-0.3-3.8-0.6-6.2-0.6C64.5,59,62.6,59.3,61.2,59.8z"/>
	<path class="st0" d="M52.4,66c1,0,1.9-0.3,2.6-0.8c1-0.7,1.7-1.8,1.9-3.1c0.3-1.7-0.3-3.5-1.6-5.2c-2.6-3.1-7.9-5.1-10.3-5.9
		c0,2.7,0.2,8.8,2,11.8C48.2,64.8,50.3,66,52.4,66z"/>
	<path class="st0" d="M48.8,72c-2.1,0.3-3.8,1.2-4.8,2.7c-0.8,1.1-1.1,2.4-0.9,3.7c0.4,2.6,2.9,4.6,5.7,4.6c0.5,0,1-0.1,1.6-0.2
		c3.4-0.8,7.7-5.2,9.7-7.2c-2.1-1.2-6.7-3.6-10.6-3.6C49.2,72,48.9,72,48.8,72z"/>
	<path class="st0" d="M40.4,76c0.7,0,1.3-0.1,1.9-0.4c1.1-0.5,2-1.5,2.4-2.7c0.5-1.6,0.3-3.5-0.7-5.4c-2.1-3.5-6.9-6.4-9.3-7.6
		c-0.5,2.7-1.4,8.6-0.2,11.8C35.8,74.7,38.4,76,40.4,76z"/>
	<path class="st0" d="M31.7,81.9c0.6-1.6,0.3-3.5-0.7-5.4c-2.1-3.5-6.9-6.4-9.3-7.6c-0.5,2.7-1.4,8.6-0.2,11.8
		c1.1,2.9,3.8,4.2,5.8,4.2c0.7,0,1.3-0.1,1.9-0.4C30.4,84.1,31.3,83.1,31.7,81.9z"/>
	<path class="st0" d="M38.9,82.9c-1.3-0.6-2.5-0.9-3.7-0.9c-2.2,0-3.9,1.1-4.8,2.8c-0.5,1.1-0.5,2.6,0.1,3.9c0.7,1.7,2.2,3,4.1,3.7
		c1,0.4,2.5,0.6,4.2,0.6c3.1,0,6.4-0.6,8.2-1C45.7,89.7,42.6,84.9,38.9,82.9z"/>
</g>
</svg>
