<svg xmlns="http://www.w3.org/2000/svg"  viewBox="0 0 100 100" width="100px" height="100px"><path fill="#a0d2a1" d="M16,86c0.078-3.777,0.717-14.507,5.336-19.078C29.178,59.158,38.108,58,42.733,58	c0.971,0,1.744,0.051,2.263,0.101c0.059,2.762-0.373,12.933-9.171,21.641C30.618,84.891,21.53,85.903,16,86z"/><path fill="none" stroke="#1f212b" stroke-linecap="round" stroke-linejoin="round" stroke-miterlimit="10" stroke-width="2" d="M16,86	c0.078-3.777,0.717-14.507,5.336-19.078C29.178,59.158,38.108,58,42.733,58c0.971,0,1.744,0.051,2.263,0.101	c0.059,2.762-0.373,12.933-9.171,21.641C30.618,84.891,21.53,85.903,16,86z"/><path fill="#a0d2a1" d="M34.003,86c-0.028-4.504,0.039-13.527,7.595-20.991c3.429-3.387,7.729-5.103,12.789-5.103	c4.025,0,7.289,1.128,8.176,1.466c0.891,1.378,5.197,9.361-7.29,19.102C50.646,84.082,43.682,85.892,34.003,86z"/><path fill="#a0d2a1" d="M16,67.998c0.108-9.686,1.908-16.655,5.501-21.285c4.42-5.7,9.193-8.713,13.807-8.713	c2.74,0,4.621,1.046,5.206,1.42c0.706,1.814,4.464,12.744-3.623,20.976C30.197,67.211,22.151,68,16.682,68L16,67.998z"/><path fill="none" stroke="#1f212b" stroke-linecap="round" stroke-linejoin="round" stroke-miterlimit="10" stroke-width="2" d="M34.003,86c-0.028-4.504,0.039-13.527,7.595-20.991c3.429-3.387,7.729-5.103,12.789-5.103c4.025,0,7.289,1.128,8.176,1.466	c0.891,1.378,5.197,9.361-7.29,19.102C50.646,84.082,43.682,85.892,34.003,86z"/><path fill="none" stroke="#1f212b" stroke-linecap="round" stroke-linejoin="round" stroke-miterlimit="10" stroke-width="2" d="M16,67.998c0.108-9.686,1.908-16.655,5.501-21.285c4.42-5.7,9.193-8.713,13.807-8.713c2.74,0,4.621,1.046,5.206,1.42	c0.706,1.814,4.464,12.744-3.623,20.976C30.197,67.211,22.151,68,16.682,68L16,67.998z"/><path fill="none" stroke="#1f212b" stroke-linecap="round" stroke-linejoin="round" stroke-miterlimit="10" stroke-width="2" d="M84,18	c-4.091,6.845-12,11-12,11"/><path fill="#a0d2a1" d="M56.827,84c-3.69-10.118-3.769-18.539-0.229-25.037C60.916,51.03,69.388,48.455,71.123,48 c1.819,0.996,10.96,6.582,6.806,16.387C73.415,75.038,66.507,81.462,56.827,84z"/><path fill="#a0d2a1" d="M32.137,48c-4.244,0-8.997-0.95-14.137-2.823c2.54-9.683,8.963-16.592,19.614-21.104 C39.294,23.361,40.948,23,42.533,23C49.23,23,53.198,29.443,54,30.886C53.383,33.339,48.982,48,32.137,48z"/><path fill="none" stroke="#1f212b" stroke-linecap="round" stroke-linejoin="round" stroke-miterlimit="10" stroke-width="2" d="M56.827,84c-3.69-10.118-3.769-18.539-0.229-25.037C60.916,51.03,69.388,48.455,71.123,48c1.819,0.996,10.96,6.582,6.806,16.387 C73.415,75.038,66.507,81.462,56.827,84z"/><path fill="none" stroke="#1f212b" stroke-linecap="round" stroke-linejoin="round" stroke-miterlimit="10" stroke-width="2" d="M32.137,48c-4.244,0-8.997-0.95-14.137-2.823c2.54-9.683,8.963-16.592,19.614-21.104C39.294,23.361,40.948,23,42.533,23 C49.23,23,53.198,29.443,54,30.886C53.383,33.339,48.982,48,32.137,48z"/><path fill="#a0d2a1" d="M34,68c0.079-4.817,0.853-19.935,7.355-26.335C46.523,36.579,51.583,34,56.395,34	c5.789,0,9.245,3.854,9.281,3.893c0.137,0.129,3.127,2.677,3.315,7.177c0.185,4.464-2.334,9.3-7.488,14.373	C54.245,66.585,41.537,67.902,34,68z"/><path fill="none" stroke="#1f212b" stroke-linecap="round" stroke-linejoin="round" stroke-miterlimit="10" stroke-width="2" d="M34,68	c0.079-4.817,0.853-19.935,7.355-26.335C46.523,36.579,51.583,34,56.395,34c5.789,0,9.245,3.854,9.281,3.893	c0.137,0.129,3.127,2.677,3.315,7.177c0.185,4.464-2.334,9.3-7.488,14.373C54.245,66.585,41.537,67.902,34,68z"/><path fill="#52bea0" d="M75.611,73c-1.953-2.042-7.598-8.423-10.696-16.906l-0.294-0.804l-0.823,0.231 c-1.767,0.499-3.744,0.752-5.878,0.752c-4.827,0-9.171-1.299-10.488-1.733c-0.604-1.841-2.889-9.597-0.977-16.381l0.233-0.824 l-0.805-0.294C37.418,33.947,31.049,28.301,29,26.337C31.562,24.3,40.368,18,51.245,18c8.099,0,15.651,3.45,22.448,10.253 C93.699,48.282,79.021,68.799,75.611,73z"/><path fill="none" stroke="#1f212b" stroke-linecap="round" stroke-linejoin="round" stroke-miterlimit="10" stroke-width="2" d="M75.611,73c-1.953-2.042-7.598-8.423-10.696-16.906l-0.294-0.804l-0.823,0.231c-1.767,0.499-3.744,0.752-5.878,0.752 c-4.827,0-9.171-1.299-10.488-1.733c-0.604-1.841-2.889-9.597-0.977-16.381l0.233-0.824l-0.805-0.294 C37.418,33.947,31.049,28.301,29,26.337C31.562,24.3,40.368,18,51.245,18c8.099,0,15.651,3.45,22.448,10.253 C93.699,48.282,79.021,68.799,75.611,73z"/><path fill="none" stroke="#1f212b" stroke-linecap="round" stroke-miterlimit="10" d="M78.909,49 c-0.459-5.386-2.851-11.303-8.754-17.213"/><path fill="none" stroke="#1f212b" stroke-linecap="round" stroke-miterlimit="10" d="M77.685,59c0.693-2.144,1.182-4.497,1.288-7"/><path fill="none" stroke="#1f212b" stroke-linecap="round" stroke-miterlimit="10" d="M72.213,60 c0.977,1.748,2.014,3.322,2.993,4.676c0.457-0.828,0.908-1.722,1.33-2.676"/><path fill="none" stroke="#1f212b" stroke-linecap="round" stroke-miterlimit="10" d="M69.612,54.379 c0.329,0.9,0.691,1.774,1.077,2.621"/></svg>