<svg id="Layer_1" data-name="Layer 1" xmlns="http://www.w3.org/2000/svg" viewBox="0 0 55.71 80.46" width="100" height="100">
  <defs>
    <style>.cls-1{fill:#29abe2;}.cls-2{fill:#fff;}</style>
  </defs>
  <title>water</title>
  <path class="cls-1" d="M50,9.77a132.77,132.77,0,0,0-13.48,16C29.41,35.75,22.15,49,22.15,61.41,22.15,75,33,90.23,50,90.23S77.85,75,77.85,61.41c0-12.34-7.14-25.43-14.19-35.34A132.89,132.89,0,0,0,50,9.77Z" transform="translate(-22.15 -9.77)"/>
  <path class="cls-2" d="M50,85.13A2,2,0,0,1,50,81c12.18,0,18.67-11.4,18.67-19.63a2,2,0,0,1,4.08,0C72.75,71.35,64.84,85.13,50,85.13Z" transform="translate(-22.15 -9.77)"/>
</svg>
