<svg xmlns="http://www.w3.org/2000/svg"  viewBox="0 0 100 100" width="100px" height="100px"><path fill="#f9b621" d="M80.737,29.473c-5.047,4.999-10.746,3.103-11.691,2.476c-0.952-0.943-2.548-6.581,2.184-11.586 c4.1-4.061,13.271-4.036,13.271-4.036S84.523,25.408,80.737,29.473z"/><path fill="#f9b621" d="M42.738,62.855c5.876-0.312,12.742,1.99,15.69,3.962c-2.282,3.918-6.194,6.853-12.074,7.818 c-7.834,1.287-11.444-4.278-11.774-5.589C34.252,67.738,34.568,63.488,42.738,62.855z"/><path fill="#f9b621" d="M46.524,56.062c0.325,1.262,3.877,6.315,11.592,5.069c5.787-0.93,9.641-4.071,11.883-7.849 c-3.546-2.53-9.979-4.119-15.448-3.184C49.084,51.028,46.202,54.804,46.524,56.062z"/><path fill="#f9b621" d="M65.726,37.445c-5.464,2.011-6.502,4.582-6.171,5.59c0.902,2.753,5.551,6.554,12.306,4.881 c5.466-1.336,9.313-7.396,9.63-11.444C81.809,36.14,73.119,34.771,65.726,37.445z"/><path fill="#f9b621" d="M32.24,65.745c-1.317-0.329-6.589-3.949-5.622-11.812c0.969-5.895,3.926-9.821,7.868-12.107 c1.978,2.628,4.303,9.516,3.985,15.742C37.83,65.763,33.557,66.076,32.24,65.745z"/><path fill="#f9b621" d="M51.218,45.947c0.974-5.527-0.688-12.036-3.323-15.62c-3.941,2.266-6.891,5.838-8.191,11.688 c-1.298,7.803,3.974,11.395,5.286,11.722C46.307,54.389,50.246,51.474,51.218,45.947z"/><path fill="#f9b621" d="M64.669,18.326c-3.827,0.315-9.557,3.853-11.139,9.671c-1.9,6.775,1.783,11.778,3.573,12.767 c0.957,0.324,4.11-0.473,6.326-5.96C65.965,27.054,64.669,18.326,64.669,18.326z"/><path fill="#f9b621" d="M29.763,75.356c5.894-0.325,12.78,2.073,15.737,4.127c-2.289,4.081-6.213,7.138-12.11,8.143 c-7.858,1.341-11.478-4.456-11.809-5.822C21.251,80.445,21.568,76.017,29.763,75.356z"/><path fill="#f9b621" d="M19.24,78.744c-1.317-0.329-6.589-3.949-5.622-11.812c0.969-5.895,3.926-9.821,7.868-12.106 c1.978,2.628,4.303,9.516,3.985,15.742C24.832,78.762,20.559,79.077,19.24,78.744z"/><path fill="none" stroke="#1f212b" stroke-linecap="round" stroke-linejoin="round" stroke-miterlimit="10" stroke-width="2" d="M80.737,29.473c-5.047,4.999-10.746,3.103-11.691,2.476c-0.952-0.943-2.548-6.581,2.184-11.586 c4.1-4.061,13.271-4.036,13.271-4.036S84.523,25.408,80.737,29.473z"/><path fill="none" stroke="#1f212b" stroke-linecap="round" stroke-linejoin="round" stroke-miterlimit="10" stroke-width="2" d="M42.738,62.855c5.876-0.312,12.742,1.99,15.69,3.962c-2.282,3.918-6.194,6.853-12.074,7.818 c-7.834,1.287-11.444-4.278-11.774-5.589C34.252,67.738,34.568,63.488,42.738,62.855z"/><path fill="none" stroke="#1f212b" stroke-linecap="round" stroke-linejoin="round" stroke-miterlimit="10" stroke-width="2" d="M46.524,56.062c0.325,1.262,3.877,6.315,11.592,5.069c5.787-0.93,9.641-4.071,11.883-7.849c-3.546-2.53-9.979-4.119-15.448-3.184 C49.084,51.028,46.202,54.804,46.524,56.062z"/><path fill="none" stroke="#1f212b" stroke-linecap="round" stroke-linejoin="round" stroke-miterlimit="10" stroke-width="2" d="M65.726,37.445c-5.464,2.011-6.502,4.582-6.171,5.59c0.902,2.753,5.551,6.554,12.306,4.881c5.466-1.336,9.313-7.396,9.63-11.444 C81.809,36.14,73.119,34.771,65.726,37.445z"/><path fill="none" stroke="#1f212b" stroke-linecap="round" stroke-linejoin="round" stroke-miterlimit="10" stroke-width="2" d="M32.24,65.745c-1.317-0.329-6.589-3.949-5.622-11.812c0.969-5.895,3.926-9.821,7.868-12.107c1.978,2.628,4.303,9.516,3.985,15.742 C37.83,65.763,33.557,66.076,32.24,65.745z"/><path fill="none" stroke="#1f212b" stroke-linecap="round" stroke-linejoin="round" stroke-miterlimit="10" stroke-width="2" d="M51.218,45.947c0.974-5.527-0.688-12.036-3.323-15.62c-3.941,2.266-6.891,5.838-8.191,11.688 c-1.298,7.803,3.974,11.395,5.286,11.722C46.307,54.389,50.246,51.474,51.218,45.947z"/><path fill="none" stroke="#1f212b" stroke-linecap="round" stroke-linejoin="round" stroke-miterlimit="10" stroke-width="2" d="M64.669,18.326c-3.827,0.315-9.557,3.853-11.139,9.671c-1.9,6.775,1.783,11.778,3.573,12.767c0.957,0.324,4.11-0.473,6.326-5.96 C65.965,27.054,64.669,18.326,64.669,18.326z"/><path fill="none" stroke="#1f212b" stroke-linecap="round" stroke-linejoin="round" stroke-miterlimit="10" stroke-width="2" d="M29.763,75.356c5.894-0.325,12.78,2.073,15.737,4.127c-2.289,4.081-6.213,7.138-12.11,8.143 c-7.858,1.341-11.478-4.456-11.809-5.822C21.251,80.445,21.568,76.017,29.763,75.356z"/><path fill="none" stroke="#1f212b" stroke-linecap="round" stroke-linejoin="round" stroke-miterlimit="10" stroke-width="2" d="M19.24,78.744c-1.317-0.329-6.589-3.949-5.622-11.812c0.969-5.895,3.926-9.821,7.868-12.106c1.978,2.628,4.303,9.516,3.985,15.742 C24.832,78.762,20.559,79.077,19.24,78.744z"/><line x1="68.783" x2="10" y1="32.12" y2="90.5" fill="none" stroke="#1f212b" stroke-linecap="round" stroke-linejoin="round" stroke-miterlimit="10" stroke-width="2"/><line x1="53.5" x2="57" y1="26.826" y2="12" fill="none" stroke="#1f212b" stroke-linecap="round" stroke-linejoin="round" stroke-miterlimit="10"/><line x1="40" x2="43.5" y1="39.326" y2="22.326" fill="none" stroke="#1f212b" stroke-linecap="round" stroke-linejoin="round" stroke-miterlimit="10"/><line x1="72.611" x2="74.5" y1="12.5" y2="8.5" fill="none" stroke="#1f212b" stroke-linecap="round" stroke-linejoin="round" stroke-miterlimit="10"/><line x1="68.5" x2="72.195" y1="23.326" y2="15.5" fill="none" stroke="#1f212b" stroke-linecap="round" stroke-linejoin="round" stroke-miterlimit="10"/><line x1="29.089" x2="29.5" y1="35.5" y2="32.826" fill="none" stroke="#1f212b" stroke-linecap="round" stroke-linejoin="round" stroke-miterlimit="10"/><line x1="26.5" x2="28.627" y1="52.326" y2="38.5" fill="none" stroke="#1f212b" stroke-linecap="round" stroke-linejoin="round" stroke-miterlimit="10"/><line x1="13.5" x2="16" y1="65.826" y2="45.826" fill="none" stroke="#1f212b" stroke-linecap="round" stroke-linejoin="round" stroke-miterlimit="10"/><line x1="77" x2="93.5" y1="32.5" y2="26" fill="none" stroke="#1f212b" stroke-linecap="round" stroke-linejoin="round" stroke-miterlimit="10"/><line x1="85" x2="87" y1="47.2" y2="47" fill="none" stroke="#1f212b" stroke-linecap="round" stroke-linejoin="round" stroke-miterlimit="10"/><line x1="71" x2="80" y1="48.5" y2="47.6" fill="none" stroke="#1f212b" stroke-linecap="round" stroke-linejoin="round" stroke-miterlimit="10"/><line x1="58.5" x2="75" y1="61.5" y2="61" fill="none" stroke="#1f212b" stroke-linecap="round" stroke-linejoin="round" stroke-miterlimit="10"/><line x1="46.5" x2="64" y1="75" y2="74.5" fill="none" stroke="#1f212b" stroke-linecap="round" stroke-linejoin="round" stroke-miterlimit="10"/><line x1="52" x2="53.5" y1="87.075" y2="87" fill="none" stroke="#1f212b" stroke-linecap="round" stroke-linejoin="round" stroke-miterlimit="10"/><line x1="46.5" x2="49" y1="87.35" y2="87.225" fill="none" stroke="#1f212b" stroke-linecap="round" stroke-linejoin="round" stroke-miterlimit="10"/><line x1="33.5" x2="43.5" y1="88" y2="87.5" fill="none" stroke="#1f212b" stroke-linecap="round" stroke-linejoin="round" stroke-miterlimit="10"/></svg>